<?xml version="1.0"?>
<svg xmlns:rdf="http://www.w3.org/1999/02/22-rdf-syntax-ns#" xmlns="http://www.w3.org/2000/svg" xmlns:cc="http://creativecommons.org/ns#" xmlns:dc="http://purl.org/dc/elements/1.1/" xmlns:svg="http://www.w3.org/2000/svg" id="svg3169" viewBox="0 0 80.746 110.69" version="1.1">
  <title id="title2993">chronom&#xE8;tre / chronometer</title>
  <g id="layer1" stroke-linejoin="round" stroke="#000" stroke-linecap="round" transform="translate(-346.61 -326.58)">
    <path id="path3584" stroke-width="2.1133" stroke-dashoffset="2" fill="none" d="m426.29 397.51c0.36807 21.369-19.814 40.241-40.715 38.6-20.073-0.24897-38.556-18.656-37.889-39.275 0.30331-20.28 18.538-38.446 38.605-37.946 18.894-0.67076 37.643 14.354 39.765 33.73 0.17008 1.6244 0.2812 3.2573 0.23295 4.8917z"/>
    <path id="path3586" stroke-width="1.268" stroke-dashoffset="2" fill="none" d="m417.99 397.28c0.28682 16.649-15.44 31.353-31.726 30.074-15.642-0.19398-30.044-14.536-29.524-30.601 0.23631-15.801 14.445-29.955 30.083-29.565 14.723-0.52262 29.333 11.184 30.987 26.28 0.1325 1.2656 0.21911 2.5378 0.18151 3.8113z"/>
    <path id="path3590" stroke-width="1.268" stroke-dashoffset="2" fill="none" d="m397.64 380.75c0.10111 5.7705-5.4435 10.867-11.185 10.424-5.5146-0.0672-10.592-5.038-10.409-10.606 0.0833-5.4766 5.0928-10.382 10.606-10.247 5.1906-0.18116 10.341 3.8763 10.924 9.1086 0.0467 0.43868 0.0773 0.87959 0.064 1.321z"/>
    <path id="path3596" stroke-width="1.6906" fill="none" d="m364.34 365.57-4.9707-6.6391 0.33139-3.6515-8.9472 7.303 2.9824 0.33196 5.6076 7.0741 4.9964-4.4184z"/>
    <path id="path3606" stroke-width=".66862" transform="matrix(2.1133 0 0 2.1133 523.41 -470.84)" fill="none" d="m-57.857 384.45c0 3.7476-3.2379 6.7857-7.2321 6.7857s-7.2321-3.0381-7.2321-6.7857 3.2379-6.7857 7.2321-6.7857 7.2321 3.0381 7.2321 6.7857z"/>
    <path id="path3608" stroke-width=".76924" transform="matrix(1.649 0 0 1.6477 493.38 -292.03)" fill="none" d="m-57.857 384.45c0 3.7476-3.2379 6.7857-7.2321 6.7857s-7.2321-3.0381-7.2321-6.7857 3.2379-6.7857 7.2321-6.7857 7.2321 3.0381 7.2321 6.7857z"/>
    <path id="path3602" stroke-width="1.268" fill="#fff" d="m381.7 358.62 0.3774-11.51 7.5475-0.37739 1.1321 11.887h-9.057z"/>
    <path id="path3604" stroke-width="1.268" fill="#fff" d="m379.81 340.69-0.37737 8.3022h12.831v-8.6796l-12.453 0.37737z"/>
    <path id="path3612" stroke-width="1.268" fill="#fff" d="m411.68 382.95-24.56 14.769-6.3598 6.1159 2.0943 2.9629 8.7196-4.444c7.0509-6.0882 14.324-13.739 20.106-19.404z"/>
    <path id="path3610" stroke-width=".46007" transform="matrix(3.0319 0 0 3.0319 580.22 -851.67)" fill="#fff" d="m-62.124 413.14c0 0.7671-0.62186 1.389-1.389 1.389-0.7671 0-1.389-0.62186-1.389-1.389 0-0.7671 0.62186-1.389 1.389-1.389 0.7671 0 1.389 0.62186 1.389 1.389z"/>
  </g>
  <metadata>
    <rdf:RDF>
      <cc:Work>
        <dc:format>image/svg+xml</dc:format>
        <dc:type rdf:resource="http://purl.org/dc/dcmitype/StillImage"/>
        <cc:license rdf:resource="http://creativecommons.org/licenses/publicdomain/"/>
        <dc:publisher>
          <cc:Agent rdf:about="http://openclipart.org/">
            <dc:title>Openclipart</dc:title>
          </cc:Agent>
        </dc:publisher>
        <dc:title>chronom&#xE8;tre / chronometer</dc:title>
        <dc:date>2011-01-08T00:53:51</dc:date>
        <dc:description>chronometer, clip art, clipart, clock, duration, line art, minute, moment, period, period of time, second, time, time period, </dc:description>
        <dc:source>http://openclipart.org/detail/104017/chronom&#xE8;tre--chronometer-by-lmproulx</dc:source>
        <dc:creator>
          <cc:Agent>
            <dc:title>lmproulx</dc:title>
          </cc:Agent>
        </dc:creator>
        <dc:subject>
          <rdf:Bag>
            <rdf:li>chronometer</rdf:li>
            <rdf:li>clip art</rdf:li>
            <rdf:li>clipart</rdf:li>
            <rdf:li>clock</rdf:li>
            <rdf:li>duration</rdf:li>
            <rdf:li>line art</rdf:li>
            <rdf:li>minute</rdf:li>
            <rdf:li>moment</rdf:li>
            <rdf:li>period</rdf:li>
            <rdf:li>period of time</rdf:li>
            <rdf:li>second</rdf:li>
            <rdf:li>time</rdf:li>
            <rdf:li>time period</rdf:li>
          </rdf:Bag>
        </dc:subject>
      </cc:Work>
      <cc:License rdf:about="http://creativecommons.org/licenses/publicdomain/">
        <cc:permits rdf:resource="http://creativecommons.org/ns#Reproduction"/>
        <cc:permits rdf:resource="http://creativecommons.org/ns#Distribution"/>
        <cc:permits rdf:resource="http://creativecommons.org/ns#DerivativeWorks"/>
      </cc:License>
    </rdf:RDF>
  </metadata>
</svg>
